<svg xmlns="http://www.w3.org/2000/svg" viewBox="0 0 278.17 86.57">
									<defs>
										<style>
											.cls-1 {
												fill: #133759;
											}

											.cls-2 {
												fill: none;
												stroke: #fff;
												stroke-width: 0.74px;
											}

											.cls-3 {
												fill: #addef8;
											}

											.cls-4 {
												fill: #ffd028;
											}

											.cls-5 {
												fill: #fff;
											}

											.cls-6 {
												fill: #e3a222;
											}

											.cls-7 {
												fill: #e63421;
											}

											.cls-8 {
												fill: #0098d6;
											}

											.cls-9 {
												fill: #008b3b;
											}

											.cls-10 {
												fill: #86bc25;
											}

											.cls-11 {
												fill: #008e3c;
											}
										</style>
									</defs>
									<path class="cls-1" d="M110.7,0.8v1c-3.6.1-4.8,1.5-4.8,4.9V21c0,6.6-4.2,13.7-15.7,13.7-10.1,0-15.3-5.8-15.3-13.4V5.8c0-3.4-1-3.9-4.6-4v-1H83.9v1H83.4c-2.9,0-4.2.8-4.2,3.9V20.5c0,7.2,4.2,11.5,12.1,11.5,6,0,12.1-2.5,12.1-11.5V8.1c0-5.1-.8-6-5.2-6.2v-1h12.5V0.8Z" transform="translate(-1.53)"></path>
									<path class="cls-1" d="M116.7,29.2c0,2.9.7,3.6,3.6,3.6v1H109.6v-1c2.3,0,3.6-1.3,3.6-3.3V18.3c0-2-.2-2.3-1.6-2.6l-1.8-.4V14.4l6.1-2.2h0.9v4.1c3.6-2.2,6.5-4.2,9.1-4.2,3.6,0,5.7,2.7,5.7,8,0,7.1-.4,8.4-0.4,10.5-0.1,1.4.8,2.1,3,2.1h1.2v1H124v-1a4.42,4.42,0,0,0,3-1c1-1,1.1-4.9,1.1-11.9,0-4.2-2.1-5.6-4.2-5.6-1.7,0-4.3,1.5-7.1,3.4V29.2h-0.1Z" transform="translate(-1.53)"></path>
									<path class="cls-1" d="M144.7,29.8c0,1.9,1,3,3.8,3v1H136.7v-1c3.2,0,4.4-1.1,4.4-3.9V18.2c0-2.1-.3-2.3-1.6-2.6l-2.5-.5V14.4l6.9-2.4h0.8V29.8h0ZM142.5,0a2.15,2.15,0,0,1,2.3,2,2.21,2.21,0,0,1-2.3,2,2.15,2.15,0,0,1-2.3-2,2.15,2.15,0,0,1,2.3-2" transform="translate(-1.53)"></path>
									<path class="cls-1" d="M159.3,34.3l-7.7-17.6c-0.8-1.9-1.5-2.5-2.3-2.7l-1.6-.3v-1h10.8v1c-3.2.1-4.3,0.5-3,3l5.6,13.2,5.4-12.3c1-2.2.5-3.7-3.4-4v-1h9.2v1c-2,.4-3.2,1.5-4.2,3.9l-7.3,16.7h-1.5v0.1Z" transform="translate(-1.53)"></path>
									<path class="cls-1" d="M175.6,20.4a18,18,0,0,0-.2,2.2c0,5.5,3.9,9.2,8.1,9.2,2.7,0,4.7-1.1,6.8-3.5l0.6,0.6c-2.2,2.8-5.6,5.5-9.4,5.5-5.2,0-9.2-4.7-9.2-10.9,0-5.6,3.8-11.4,10.3-11.4,7.2,0,7,5.2,8.8,6.9v1.2H175.6v0.2ZM186.7,19c-0.6-3.5-2.7-5.7-5.3-5.7-1.8,0-4.4.8-5.6,5.7h10.9Z" transform="translate(-1.53)"></path>
									<path class="cls-1" d="M200.8,30c0,2.2.8,2.9,3.5,2.9h2v1H193.7v-1c2.7-.1,3.6-1.2,3.6-4V16.6l-3.6-1.3V14.4l6.1-2.1h1.1v5.6H201c2.7-4.4,3.3-5.4,5-5.4a4.07,4.07,0,0,1,1.8.5c0.5,0.2,1.5.4,2.8,0.8L209.3,17a9,9,0,0,1-2.8-.9,4.14,4.14,0,0,0-1.9-.5,2.56,2.56,0,0,0-2.1,1.4,22.93,22.93,0,0,0-1.7,2.7V30Z" transform="translate(-1.53)"></path>
									<path class="cls-1" d="M213.5,28.5c0.6,3.2,2.7,5,5,5a3.68,3.68,0,0,0,3.8-3.5c0-1.1-.3-1.8-1.7-3.2-3.8-3.8-8-4.1-8-8.5,0-3.5,2.8-5.9,6.8-5.9a10.23,10.23,0,0,1,4.2.9l0.1,4.8h-0.9c-0.4-2.7-2.1-4.4-4.2-4.4a3,3,0,0,0-3.2,3c0,4.7,9.9,5.5,9.9,11.9,0,3.5-2.9,6.1-6.6,6.1a6.8,6.8,0,0,1-2.3-.4A4.41,4.41,0,0,0,215,34a1.21,1.21,0,0,0-.9.6h-0.8l-0.6-5.9h0.8V28.5Z" transform="translate(-1.53)"></path>
									<path class="cls-1" d="M235.8,29.8c0,1.9,1,3,3.8,3v1H227.8v-1c3.2,0,4.4-1.1,4.4-3.9V18.2c0-2.1-.3-2.3-1.6-2.6l-2.5-.5V14.4L235,12h0.8V29.8ZM233.6,0a2.15,2.15,0,0,1,2.3,2,2.21,2.21,0,0,1-2.3,2,2.15,2.15,0,0,1-2.3-2,2.29,2.29,0,0,1,2.3-2" transform="translate(-1.53)"></path>
									<path class="cls-1" d="M253.5,12.8l-0.8,2.3H247V27.5c0,3.3,2.4,4.5,3.5,4.5s2.2-.9,3.2-2.7l0.9,0.8c-1.3,2.8-3.3,4.4-5.8,4.4-3.1,0-5.4-2.6-5.4-6.2V15.1H241V14.2c2.1-1,3.9-3.4,5.1-6.7H247v5.3h6.5Z" transform="translate(-1.53)"></path>
									<path class="cls-1" d="M273.4,18.7c1.6-4,.6-4.8-2.5-4.9v-1h8.8v1c-2.2.3-3.4,1.8-4.4,4.2l-9,22.5c-1.6,3.9-2.8,5.7-4.7,5.7a2,2,0,0,1-2.2-1.9c0-2.2,3.1-1.6,4.4-3a10.86,10.86,0,0,0,1.8-3l1.6-4L259,16.8c-1-2.2-2-3.1-4.2-3.1v-1h10.7v1c-3.2,0-3.6,1-2.5,3.2l6,13Z" transform="translate(-1.53)"></path>
									<path class="cls-1" d="M84.4,51.8c1.5,0,4.8,2.1,4.8,7.8,0,10.1-10,14.5-12.5,14.5s-4.7-4-4.7-8.4c0-8.6,9.2-13.9,12.4-13.9m-2.7,2c-3.3,0-6.3,6.4-6.3,11.7,0,4.5,1.9,6.6,3.7,6.6,4.2,0,6.7-6.9,6.7-11.8,0.1-3.7-1.7-6.5-4.1-6.5" transform="translate(-1.53)"></path>
									<path class="cls-1" d="M91.2,54.2l0.2-1c1.3-.2,2.6-0.4,3.9-0.7,0.8-4.4,2.4-8.9,5.4-11.9a9.16,9.16,0,0,1,6.3-2.9c2.1,0,3.8,1.2,3.8,2.5a1.47,1.47,0,0,1-1.5,1.5c-1.7,0-3.2-2.2-4.7-2.2-2.1,0-3.8,2.3-4.5,5.8l-1.4,7h4.6l-0.5,1.8H98.4L95.7,69.6c-2.1,11.9-8.1,16.1-13.1,16.1-2.2,0-4.1-1.1-4.1-2.4a1.76,1.76,0,0,1,1.8-1.6c2,0,3,2.3,5,2.3a4.59,4.59,0,0,0,3.2-1.5c2.7-2.7,3.7-11.7,3.9-13l2.7-15.4H91.2v0.1Z" transform="translate(-1.53)"></path>
									<path class="cls-1" d="M141.9,71a35.85,35.85,0,0,1-14.2,3.3c-11.6,0-17-9-17-16.7,0-8,5.6-17.9,18.5-17.9,5.7,0,9.5,1.8,10.6,1.8a1.59,1.59,0,0,0,1.2-.4h0.7v8.6h-1.1c-1.4-6.6-5.9-8.7-10.9-8.7-9.3,0-14.1,7.8-14.1,16.3,0,10.9,7.6,15.7,13.8,15.7a17.52,17.52,0,0,0,8.1-2V64.3c0-3-1.1-4-4.2-4h-2v-1h14.3v1c-2.7.2-3.7,1.1-3.7,3.3V71h0Z" transform="translate(-1.53)"></path>
									<path class="cls-1" d="M153.6,69.3c0,2.2,1,3.2,3.1,3.2h0.9v1H145.7v-1c3.4,0,4.4-1,4.4-3.6V43.3c0-1.5-.2-2-1.6-2.1l-2.4-.3V40l6.8-2.2h0.8V69.3h-0.1Z" transform="translate(-1.53)"></path>
									<path class="cls-1" d="M160.2,58.8a2.54,2.54,0,0,1-.2-0.7c0-1.9,4.4-6.2,7.9-6.2a7.09,7.09,0,0,1,5.6,2.8c0.8,1.1.8,1.8,0.8,4.6v7.1c0,4.2,0,5.2,1.4,5.2a3.71,3.71,0,0,0,2.6-1.2l0.3,0.8c-2.9,2.3-4.4,2.9-5.3,2.9-2.2,0-2.4-2.4-2.4-3.2-3.7,3-4.7,3.2-6.2,3.2-3.1,0-4.9-1.8-4.9-4.4,0-3.2,2.9-4.4,6.3-5.2a18.54,18.54,0,0,0,4.7-2V58.3c0-1.5,0-2.3-.9-3.4a3.84,3.84,0,0,0-3-1.5c-1.7,0-3.3,1.5-3.3,2.6a2.65,2.65,0,0,0,.3,1Zm10.5,4.8a22.33,22.33,0,0,1-3.1,1.5c-3.2,1.3-4.5,1.9-4.5,4a3.05,3.05,0,0,0,3.1,3.1c0.8,0,1.5-.3,4.5-2.3V63.6Z" transform="translate(-1.53)"></path>
									<path class="cls-1" d="M181.1,68.1c0.6,3.2,2.7,5,5.1,5a3.68,3.68,0,0,0,3.8-3.5c0-1.1-.3-1.8-1.7-3.2-3.8-3.8-8-4.1-8-8.5,0-3.5,2.8-6,6.8-6a10.23,10.23,0,0,1,4.2.9l0.1,4.8h-0.9c-0.4-2.7-2.1-4.4-4.2-4.4a3,3,0,0,0-3.2,3c0,4.7,9.9,5.5,9.9,12a6.65,6.65,0,0,1-8.9,5.7,4.41,4.41,0,0,0-1.4-.3,1.21,1.21,0,0,0-.9.6H181l-0.6-5.9h0.7V68.1Z" transform="translate(-1.53)"></path>
									<path class="cls-1" d="M218.4,56.8c-0.8-.1-3.3-0.3-5.3-0.6a7,7,0,0,1,.9,3.4c0,3.9-3.4,7.7-9.3,7.7a6.37,6.37,0,0,1-2.4-.4c-0.9.9-3.2,1.5-3.2,2.7s2.3,1.9,7.6,1.9c6,0,8.1.3,9.7,1.9a5,5,0,0,1,1.6,3.7c0,3.5-4.7,8.8-14.5,8.8-5.5,0-8.2-2.4-8.2-5,0-3.1,3.2-3.6,5.7-6.5-2.9-.3-5-2.1-5-3.8,0-2.4,3.6-2.5,5.4-3.9-3.2-1.3-5.1-3.6-5.1-6.6,0-4.6,4.1-8.1,9.3-8.1a8.19,8.19,0,0,1,5.9,2.1c2.4,0,4.6-.3,7-0.5v3.2h-0.1ZM206.3,84.4c4.5,0,8.8-3,8.8-6.3,0-2-1.6-3-3.6-3.1-1.4-.2-8.1-0.2-9.6-0.4-1.5,1.7-3.5,2.5-3.5,4.6,0.1,2.4,3.6,5.2,7.9,5.2m-1.5-31.5c-2,0-5.2,1.1-5.2,6.1,0,3.1,1.6,7.3,5.6,7.3,3.1,0,5.1-2.6,5.1-6.2,0.1-4.6-2.2-7.2-5.5-7.2" transform="translate(-1.53)"></path>
									<path class="cls-1" d="M230.9,51.9a11.15,11.15,0,1,1,.1,22.3c-6.6,0-11.6-4.8-11.6-11a11.23,11.23,0,0,1,11.5-11.3m0.8,20.9c3.1,0,6.7-3.2,6.7-8.5,0-6.1-3.7-11.2-8.2-11.2-3.5,0-6.7,3.6-6.7,8.2-0.1,6.4,3.6,11.5,8.2,11.5" transform="translate(-1.53)"></path>
									<path class="cls-1" d="M267,74l-6.3-15-6.4,15h-1.5l-7.9-17.8c-0.7-1.6-1.5-2.4-3.9-2.7v-1h10.3v1c-3.1.2-3.3,1.1-2.2,3.6l5.7,12.8L260,57.4c-1.2-2.7-2.1-3.7-3.9-3.9l-1.3-.2v-1h11v1c-2.6.1-3.4,0.8-2.3,3.5l5.2,12.6L273.8,57c1.2-2.8.3-3.7-3.1-3.7v-1h8.9v1c-2,.2-3.3,1.2-4.4,3.8l-6.8,16.7H267V74Z" transform="translate(-1.53)"></path>
									<path class="cls-1" d="M1.9,0.8H57.5s0.1,26.3,0,45.4c0,14.1-17.4,29.6-27.8,30.1-11.5-.9-27.8-17.1-27.8-30V0.8h0Z" transform="translate(-1.53)"></path>
									<path class="cls-2" d="M1.9,0.8H57.5s0.1,26.3,0,45.4c0,14.1-17.4,29.6-27.8,30.1-11.5-.9-27.8-17.1-27.8-30V0.8h0Z" transform="translate(-1.53)"></path>
									<rect class="cls-3" x="27.77" y="20" width="1.8" height="48.9"></rect>
									<path class="cls-4" d="M41,36.8h8.7c2.6,0,2.8.4,3,.9-0.1-.9-0.7-5.2-1-8.4a9.84,9.84,0,0,0-1.5-4.5,2.8,2.8,0,0,0-1.3-1c0.1-.2.8-1.9,1.3-3.4a1.41,1.41,0,0,0-.6-1.8,3,3,0,0,0-1.6-.3H41.8c-1.6,0-2.3,1-1.9,2.2,0.4,0.9,1,2.5,1.3,3.2-2,.7-2.6,3.3-2.9,5.7-0.5,3.9-1.1,9.1-1.2,9.5s-0.2.9,0.7,0.9c1.5,0.1,3.4.1,6.4,0a2.13,2.13,0,0,0,1.2.3,1.61,1.61,0,0,0,1.1-.3c1.2,0,2.7-.1,4.3-0.2-1.4,0-2.8-.1-4-0.1a2.74,2.74,0,0,0,.4-1.5c-0.2,2-2.8,1.8-2.2-.3a2.41,2.41,0,0,0-1.5.4,1.62,1.62,0,0,0,.2,1.3c-1.7-.1-3.1-0.1-4.2-0.2-0.5,0-.8-0.4-0.5-0.8,1.1-1.3,1.2-1.6,2-1.6m0.8-17.1h5.8c0.5,0,1.4-.2.9,1-0.4,1-1,2.4-1.3,3H42.8c-0.3-.7-0.7-1.6-1.2-2.8-0.3-.7-0.4-1.2.2-1.2" transform="translate(-1.53)"></path>
									<path class="cls-5" d="M29.7,68.7a0.92,0.92,0,0,1-.9,1,1,1,0,0,1-.9-1V63.8a0.92,0.92,0,0,1,.9-1,1,1,0,0,1,.9,1v4.9" transform="translate(-1.53)"></path>
									<path class="cls-6" d="M17.8,11a3.4,3.4,0,0,1,1-.1,2.26,2.26,0,0,0-1-.5c-0.5-1.9-3.3-1.4-3.6.3-0.1.6-2.3,0.9-4.8,4.3a15.05,15.05,0,0,1-3.3,3.2c-0.5.3,0.7,0.2,1.3-.4,0.5,0.5,1.5-1,3.1-1.3,0.4-.1,5.5-1,4.2-3.9,1.8,2.3-1.2,4-3.1,4.1a5.85,5.85,0,0,0,1.3.2c0.3,0.1-.1.4,0.1,0.6a9.21,9.21,0,0,1,1.6,1.3s0.6-.2.3-0.5a3.89,3.89,0,0,1-1.3-1.1,0.46,0.46,0,0,1,.3-0.7,3.61,3.61,0,0,0,3-4.3c-0.2-.3.2-0.9,0.9-1.2" transform="translate(-1.53)"></path>
									<path class="cls-1" d="M17.4,10.5a0.27,0.27,0,0,1-.3.3,0.32,0.32,0,0,1-.3-0.3,0.27,0.27,0,0,1,.3-0.3,0.32,0.32,0,0,1,.3.3" transform="translate(-1.53)"></path>
									<rect class="cls-5" x="28.97" y="62.6" width="0.9" height="6.9"></rect>
									<path class="cls-4" d="M32.3,70.6a1.5,1.5,0,0,0,.4-1.1,1.58,1.58,0,0,0-1.6-1.6H28.3a1.58,1.58,0,0,0-1.6,1.6,2.1,2.1,0,0,0,.4,1.1L26,71.7a11.71,11.71,0,0,0,7.4,0,11.4,11.4,0,0,0-1.1-1.1" transform="translate(-1.53)"></path>
									<path class="cls-3" d="M29.7,14.1h0c-1.2-1.1-5.1-1.6-7.6-.9a8.45,8.45,0,0,1,.5,1.7,10,10,0,0,1,7.1.6h0a10,10,0,0,1,7.1-.6,8.45,8.45,0,0,1,.5-1.7c-2.5-.6-6.4-0.1-7.6.9" transform="translate(-1.53)"></path>
									<rect class="cls-5" x="29.27" y="20" width="0.5" height="37.9"></rect>
									<rect class="cls-5" x="26.47" y="20" width="1.8" height="35.2"></rect>
									<path class="cls-1" d="M31.5,33.5a3.26,3.26,0,0,0,0-1.7H28.6a9.38,9.38,0,0,1,2.9,1.7" transform="translate(-1.53)"></path>
									<path class="cls-1" d="M25.3,64.8c1,0.1,6.3.4,6.3,0.4l0.9,2.2c-0.1.1-4.7,0-7.2-2.6" transform="translate(-1.53)"></path>
									<path class="cls-3" d="M46.9,48.8c-1.6-1.1-3.7-.2-5.8-2.1,0,5.6,4.1,6.8,1.8,8.3a9.42,9.42,0,0,1-6.1,1.5c0.2-.3.5-0.8,0.7-1.1a26,26,0,0,0-5.7,0c-3.2-.9-6.7-2.1-10.9-2.2a4.22,4.22,0,0,1,1.5,3.6c-0.6-2.5-3.3-3.8-4.6-4.3l-1.1-.3a2.28,2.28,0,0,1-1.3.9,0.51,0.51,0,0,0-.7.3v0.2c-0.4.5-1.6,0.3-2.5-.1-1.1-.4-1,0.4-0.8.7,0.3,0.6.7,1,.8,1.3,1.4,2.9,2.5,4.8,5.6,6.6a19.39,19.39,0,0,0,10.5,3.5,17.1,17.1,0,0,0,8.6.7,4.12,4.12,0,0,1-1.8-1.6c5.1-1.5,9.5-4.8,11.3-9.8a0.2,0.2,0,0,1,.1-0.2c0.3-1.1-.7-2.6-2.3-1.1,1.3-3.2,3.5-1.8,3,.1,1.7-2.3,4.1-4.8,7.2-5.8-2.9-1.3-5.7-.1-7.5.9" transform="translate(-1.53)"></path>
									<path class="cls-1" d="M31.5,43.9a3.26,3.26,0,0,0,0-1.7H28.7a6.77,6.77,0,0,1,2.8,1.7" transform="translate(-1.53)"></path>
									<path class="cls-4" d="M32.7,40.5A1.61,1.61,0,0,1,31,42.1H28.2a1.67,1.67,0,0,1-1.7-1.6,1.61,1.61,0,0,1,1.7-1.6H31a1.61,1.61,0,0,1,1.7,1.6" transform="translate(-1.53)"></path>
									<path class="cls-6" d="M31,41.6H27.9a6.11,6.11,0,0,0,3.8-1.7,1,1,0,0,1-.7,1.7" transform="translate(-1.53)"></path>
									<path class="cls-1" d="M31.6,54.4a3.26,3.26,0,0,0,0-1.7H28.8a7.74,7.74,0,0,1,2.8,1.7" transform="translate(-1.53)"></path>
									<path class="cls-4" d="M32.7,51A1.61,1.61,0,0,1,31,52.6H28.2A1.67,1.67,0,0,1,26.5,51a1.61,1.61,0,0,1,1.7-1.6H31A1.61,1.61,0,0,1,32.7,51" transform="translate(-1.53)"></path>
									<path class="cls-6" d="M31,52.1H27.9a6.11,6.11,0,0,0,3.8-1.7,1,1,0,0,1-.7,1.7" transform="translate(-1.53)"></path>
									<rect class="cls-4" x="25.67" y="22.6" width="5" height="4.9"></rect>
									<path class="cls-6" d="M32.2,27.5a1.07,1.07,0,0,0-.8,1.2H28.1a1.18,1.18,0,0,0-.8-1.2h4.9" transform="translate(-1.53)"></path>
									<rect class="cls-6" x="28.57" y="22.6" width="1.3" height="5"></rect>
									<path class="cls-4" d="M14,49.8a2.21,2.21,0,0,0-1.2,1.3,2.77,2.77,0,0,0,0,1.8,1.55,1.55,0,0,0,.8.8,1.67,1.67,0,0,0,1.2-.1A2.21,2.21,0,0,0,16,52.3a1.93,1.93,0,0,0-.8-2.6,1.67,1.67,0,0,0-1.2.1m-0.1,3.3a0.82,0.82,0,0,1-.5-0.5,1.48,1.48,0,0,1,0-1.3,2.19,2.19,0,0,1,.9-1,0.85,0.85,0,0,1,.7,0,1,1,0,0,1,.6,1,1.7,1.7,0,0,1-.1.7,2.19,2.19,0,0,1-.9,1,0.88,0.88,0,0,1-.7.1" transform="translate(-1.53)"></path>
									<path class="cls-3" d="M14.8,52.9a5.94,5.94,0,0,0-1.8-.3,1.2,1.2,0,0,1-1.1-.5,0.39,0.39,0,0,1,.4-0.2,12.32,12.32,0,0,1,3.1.2,3.28,3.28,0,0,1-.6.8" transform="translate(-1.53)"></path>
									<path class="cls-7" d="M16.9,13.2a3.28,3.28,0,0,1-2.5,3.4c0.2-.6,1-3.2,2.5-3.4" transform="translate(-1.53)"></path>
									<path class="cls-4" d="M32.8,30.1a1.61,1.61,0,0,1-1.7,1.6H28.3a1.67,1.67,0,0,1-1.7-1.6,1.61,1.61,0,0,1,1.7-1.6h2.8a1.67,1.67,0,0,1,1.7,1.6" transform="translate(-1.53)"></path>
									<path class="cls-6" d="M31.1,31.2H28a6.11,6.11,0,0,0,3.8-1.7,1,1,0,0,1-.7,1.7" transform="translate(-1.53)"></path>
									<path class="cls-5" d="M20,53.9a6.46,6.46,0,0,1,2.4,3,3,3,0,0,0-.2-2.6c1.6-.5,4.5.3,7,1.3,3.8,1.5,6.6,2,9.4,1.5S43,56,43.9,54.6c0.5-.8,1.9-0.6,1.5.5s-2.2,4.4-5.5,5.3a31.61,31.61,0,0,1-17.1.4c-2.2-.6-7.3-1.9-9.4-4.6a7,7,0,0,1-.6-1.7c0-.2.1-0.3,0.6-0.2,1.4,0.3,1.7-.3,2.3-0.9a5.34,5.34,0,0,1,4.3.5" transform="translate(-1.53)"></path>
									<path class="cls-8" d="M44.9,54.8c-2.5,4.8-7.3,5.5-12.4,5.6a22.29,22.29,0,0,1-5.9-.6,10,10,0,0,0,4-.3c-0.4-1.9-3.6-3.3-5.9-3.4a3.36,3.36,0,0,0-1.6-1.5,6.52,6.52,0,0,1,1,2.1c1.9,0.4,4.1.9,5.2,2.3-0.4.5-3.7,0.2-5.6-.2a4.12,4.12,0,0,1-2.1-1.6c-0.9,1-2.3.6-3.7-.1a1.27,1.27,0,0,0-1.1-1.2,1,1,0,0,1,.2.7c-1.6-.9-3.2-2.1-3.9-2-1.1.1,2.4,6.2,5.3,6.9,8.7,5,23.4,2.8,26.8-5.7,0.7-1.3.2-2.1-.3-1" transform="translate(-1.53)"></path>
									<path class="cls-5" d="M17.3,56.5a1.17,1.17,0,0,1-.9,1.1,0.9,0.9,0,0,1-1.1-.9,1.07,1.07,0,0,1,.9-1.1,1.17,1.17,0,0,1,1.1.9" transform="translate(-1.53)"></path>
									<path class="cls-1" d="M16.8,56.6a0.5,0.5,0,1,1-.5-0.5,0.54,0.54,0,0,1,.5.5" transform="translate(-1.53)"></path>
									<path class="cls-5" d="M41.8,47.9c-0.6,2.1,2,4.9,2,4.9a31.26,31.26,0,0,0-2-4.9" transform="translate(-1.53)"></path>
									<path class="cls-5" d="M43.6,48.3c-0.9,1.2.8,4,.8,4a14.68,14.68,0,0,0-.8-4" transform="translate(-1.53)"></path>
									<path class="cls-5" d="M46.4,51.5A7.41,7.41,0,0,1,50,47.9c-3.1.4-3.8,2.4-3.6,3.6" transform="translate(-1.53)"></path>
									<path class="cls-5" d="M29.7,5.6C28.4,3.1,26.6,5,23.3,4c-0.6,2.7-1.1,7.4-1.3,8.2,2.2,0.7,4.2-1.4,6.8.3a15.83,15.83,0,0,1,.8-6.3,1.76,1.76,0,0,1,.1-0.6" transform="translate(-1.53)"></path>
									<path class="cls-3" d="M29.7,5.6a4.81,4.81,0,0,0-.9-1.1c-0.4,4.1-.5,5-1.8,7.4a3.76,3.76,0,0,1,1.8.7,13.58,13.58,0,0,1,.9-6.1V5.6" transform="translate(-1.53)"></path>
									<path class="cls-5" d="M36.1,4c-3.2,1-5.1-.9-6.4,1.6v7.7c3.1-2.9,5.2-.3,7.7-1-0.2-.9-0.7-5.7-1.3-8.3" transform="translate(-1.53)"></path>
									<rect class="cls-4" x="27.27" y="17.9" width="1.8" height="2.1"></rect>
									<polygon class="cls-4" points="28.17 15.9 29.07 17.4 27.27 17.4 28.17 15.9"></polygon>
									<path class="cls-9" d="M14.5,22.1h0" transform="translate(-1.53)"></path>
									<path class="cls-10" d="M21.8,32.3s2.5-1.2,2.7-2.5a5.66,5.66,0,0,0-2.7-.8s2.2-1.7,2.1-2.9a7,7,0,0,0-3.1-.2,4.73,4.73,0,0,0,1.1-3.2,6.67,6.67,0,0,0-2.9.5s0.6-2.1,0-3.2c-1.1-.3-2.6,1.6-2.6,1.6A8.44,8.44,0,0,0,14.6,18a8,8,0,0,0-1.8,3.6s-1.5-1.9-2.6-1.6c-0.6,1.1,0,3.2,0,3.2a7.06,7.06,0,0,0-2.9-.5,5.32,5.32,0,0,0,1.1,3.2,7,7,0,0,0-3.1.2C5.2,27.3,7.4,29,7.4,29a5.66,5.66,0,0,0-2.7.8c0.2,1.3,2.7,2.5,2.7,2.5A5,5,0,0,0,5,33.6a5.37,5.37,0,0,0,2.9,1.7A5.74,5.74,0,0,0,6.3,37c1.4,1.1,4.4,1.3,7.4.4,0,0.6,0,5.2-.7,7.3h3c-0.7-2.1-.7-6.7-0.7-7.3,3,0.9,5.9.8,7.4-.4a5.74,5.74,0,0,0-1.6-1.7A5.37,5.37,0,0,0,24,33.6a4.31,4.31,0,0,0-2.2-1.3" transform="translate(-1.53)"></path>
									<path class="cls-11" d="M19.1,32.4a5.49,5.49,0,0,0,2.5-1.9,4.44,4.44,0,0,0-2.5-.7,5.63,5.63,0,0,0,2-2.5,5.38,5.38,0,0,0-2.7,0,8.85,8.85,0,0,0,1.3-2.9,7.61,7.61,0,0,0-2.6.8,5,5,0,0,0,.4-3A2.73,2.73,0,0,0,16,23.5,2.42,2.42,0,0,0,14.8,22a4.07,4.07,0,0,0-.7,2.7,3.85,3.85,0,0,1,1.1-.8,5.26,5.26,0,0,1-.3,3,4.66,4.66,0,0,1,1.8-.6,4.77,4.77,0,0,1-1.3,3.2,5.6,5.6,0,0,1,1.9-.6A5,5,0,0,1,15.4,32a3.32,3.32,0,0,1,2.2,0,4.5,4.5,0,0,1-2.3,2.2,3.58,3.58,0,0,1,1.9.4,3.69,3.69,0,0,1-2.4,1.5,9.37,9.37,0,0,0,5.4.6,3.07,3.07,0,0,0-1.6-1.6,6.25,6.25,0,0,0,2.7-1.2,4.17,4.17,0,0,0-2.2-1.5" transform="translate(-1.53)"></path>
									<path class="cls-3" d="M9.1,72.6c0.4,1.4-.7,4.1.1,5.7-0.7,0-5,.8-5.6.2S1.3,76.8,3,75.8c1.6-.8,5.9-2.5,6.1-3.2" transform="translate(-1.53)"></path>
									<path class="cls-3" d="M50.4,72.5c0.5,4.5-.3,5-0.2,6.3,0.4,0.1,3.9.8,5.1,0.2s2.1-2.2,1.5-2.9a13.3,13.3,0,0,0-4.5-2.6,4.56,4.56,0,0,1-1.9-1" transform="translate(-1.53)"></path>
									<path class="cls-1" d="M55.8,74.7c-1.9-1-4.6-1.6-6.2-3.8-0.6,2.2.8,3.4,0.8,6.6,1.3-2.5.2-3.1,0.5-4.2,1.1,1.4,2.7,1.6,3.8,2.1,1.4,0.7,2.3,2.4-.7,2.4H5.5c-3,0-2.2-1.6-.7-2.4,1.1-.6,2.7-0.8,3.8-2.2,0.2,1.2-.9,1.8.4,4.2-0.1-3.2,1.4-4.4.8-6.5C8.2,73,5.4,73.6,3.5,74.7c-1.6.8-1.6,1.4-1.6,4.1v5.7c0,1.1,1.3,1.7,2.8,1.7h50c1.5,0,2.8-.6,2.8-1.7V78.8c0-2.8-.1-3.3-1.7-4.1" transform="translate(-1.53)"></path>
									<path class="cls-2" d="M55.8,74.7c-1.9-1-4.6-1.6-6.2-3.8-0.6,2.2.8,3.4,0.8,6.6,1.3-2.5.2-3.1,0.5-4.2,1.1,1.4,2.7,1.6,3.8,2.1,1.4,0.7,2.3,2.4-.7,2.4H5.5c-3,0-2.2-1.6-.7-2.4,1.1-.6,2.7-0.8,3.8-2.2,0.2,1.2-.9,1.8.4,4.2-0.1-3.2,1.4-4.4.8-6.5C8.2,73,5.4,73.6,3.5,74.7c-1.6.8-1.6,1.4-1.6,4.1v5.7c0,1.1,1.3,1.7,2.8,1.7h50c1.5,0,2.8-.6,2.8-1.7V78.8c0-2.8-.1-3.3-1.7-4.1" transform="translate(-1.53)"></path>
									<path class="cls-5" d="M4.7,80.1H5.8l0.7,2.1a1.21,1.21,0,0,1,.1.5,1.75,1.75,0,0,0,.1-0.5l0.7-2.1H8.5L7,83.8H6.2L4.7,80.1" transform="translate(-1.53)"></path>
									<rect class="cls-5" x="7.57" y="80.1" width="1" height="3.7"></rect>
									<path class="cls-5" d="M12.1,80.1h1.3l1.3,3.7h-1l-0.2-.7H12l-0.2.7h-1l1.3-3.7m1.1,2.3-0.4-1.2a2,2,0,0,1-.1-0.5,1.34,1.34,0,0,0-.1.5l-0.4,1.2h1Z" transform="translate(-1.53)"></path>
									<path class="cls-5" d="M16.6,80.1h1.1l0.7,2.1a1.21,1.21,0,0,1,.1.5,1.75,1.75,0,0,0,.1-0.5l0.7-2.1h1.1l-1.6,3.7H18l-1.4-3.7" transform="translate(-1.53)"></path>
									<polygon class="cls-5" points="19.47 80.1 21.77 80.1 21.77 80.9 20.47 80.9 20.47 81.6 21.67 81.6 21.67 82.4 20.47 82.4 20.47 83 21.77 83 21.77 83.8 19.47 83.8 19.47 80.1"></polygon>
									<path class="cls-5" d="M24.2,80.1h1.2a1.56,1.56,0,0,1,1.2.3,1,1,0,0,1,.4.9,1.08,1.08,0,0,1-.8,1.1l1,1.5H26l-0.9-1.5v1.5H24.2V80.1m1.2,1.8c0.4,0,.6-0.1.6-0.5s-0.2-.5-0.6-0.5H25.2v1h0.2Z" transform="translate(-1.53)"></path>
									<rect class="cls-5" x="26.27" y="80.1" width="1" height="3.7"></rect>
									<polygon class="cls-5" points="28.97 81 28.07 81 28.07 80.1 30.77 80.1 30.77 81 29.97 81 29.97 83.8 28.97 83.8 28.97 81"></polygon>
									<path class="cls-5" d="M33.9,80.1h1.3l1.3,3.7h-1l-0.2-.7H33.9l-0.2.7h-1l1.2-3.7M35,82.4l-0.4-1.2a2,2,0,0,1-.1-0.5,1.34,1.34,0,0,0-.1.5L34,82.4h1Z" transform="translate(-1.53)"></path>
									<path class="cls-5" d="M38.1,83.1a0.46,0.46,0,0,0,.5-0.4c0-.3-0.2-0.4-0.6-0.5a1,1,0,0,1-1-1A1.18,1.18,0,0,1,38.3,80a2,2,0,0,1,1.1.3l-0.3.7a1.08,1.08,0,0,0-.7-0.3c-0.3,0-.4.1-0.4,0.3s0.3,0.3.6,0.4a1,1,0,0,1,1,1.1,1.24,1.24,0,0,1-1.4,1.3,2.11,2.11,0,0,1-1.3-.5l0.5-.7a0.64,0.64,0,0,0,.7.5" transform="translate(-1.53)"></path>
									<path class="cls-5" d="M41.7,80.1h1.1l0.7,2.1a1.21,1.21,0,0,1,.1.5,1.75,1.75,0,0,0,.1-0.5l0.7-2.1h1.1l-1.6,3.7H43.1l-1.4-3.7" transform="translate(-1.53)"></path>
									<rect class="cls-5" x="44.67" y="80.1" width="1" height="3.7"></rect>
									<polygon class="cls-5" points="47.27 81 46.47 81 46.47 80.1 49.07 80.1 49.07 81 48.27 81 48.27 83.8 47.27 83.8 47.27 81"></polygon>
									<path class="cls-5" d="M52.2,80.1h1.3l1.3,3.7h-1l-0.2-.7H52.2l-0.2.7H51l1.2-3.7m1.2,2.3L53,81.2a2,2,0,0,1-.1-0.5,1.34,1.34,0,0,0-.1.5l-0.4,1.2h1Z" transform="translate(-1.53)"></path>
									<path class="cls-6" d="M31.7,68.5c0.2,0.3.4,1.7-.8,1.8a11.31,11.31,0,0,1-3,0s2.7-.4,3.8-1.8" transform="translate(-1.53)"></path>
									<path class="cls-6" d="M40.9,26.5c0.1-1.7.9-2.1,2-2h3.8a3,3,0,0,0-3,2.4c-0.2,1.5-.2,6.8-0.2,9a21.1,21.1,0,0,0-2.9.1c0.1-2.3.2-7.8,0.3-9.5" transform="translate(-1.53)"></path>
									<rect class="cls-6" x="28.17" y="17.9" width="0.5" height="2.1"></rect>
									<polygon class="cls-6" points="28.77 17.4 28.17 15.9 28.17 17.4 28.77 17.4"></polygon>
								</svg>